PathFileType	4	(X/Y/Z)	C:/Users/beibeiliu/ov580/test_trc/User1\sequence.27_training_dense_right.trc
DataRate	CameraRate	NumFrames	NumMarkers	Units	OrigDataRate	OrigDataStartFrame	OrigNumFrames
120	120	10	19	mm	120	85	112
Frame#	Time	ThumbCMC			ThumbMCP			ThumbIP			ThumbTip			IndexMCP			IndexPIP			IndexTip			MiddleMCP			MiddlePIP			MiddleTip			RingMCP			RingPIP			RingTip			PinkyMCP			PinkyPIP			PinkyTip			BackHand1			BackHand2			BackHand3	
		X0	Y0	Z0	X1	Y1	Z1	X2	Y2	Z2	X3	Y3	Z3	X4	Y4	Z4	X5	Y5	Z5	X6	Y6	Z6	X7	Y7	Z7	X8	Y8	Z8	X9	Y9	Z9	X10	Y10	Z10	X11	Y11	Z11	X12	Y12	Z12	X13	Y13	Z13	X14	Y14	Z14	X15	Y15	Z15	X16	Y16	Z16	X17	Y17	Z17	X18	Y18	Z18	
84	0.7	172.109	65.2441	93.1334	160.985	82.607	61.8338	161.636	74.1371	32.4942	157.363	62.3201	8.97784	200.571	62.9877	13.0608	201.912	66.9349	-11.4958	205.445	62.0275	-35.4062	181.145	40.8514	0.179499	163.228	43.205	-18.2887	138.141	47.0337	-39.5019	159.883	23.1903	15.5512	124.958	30.5132	26.1905	123.472	35.4706	59.2887	153.299	2.14887	28.421	129.006	16.3521	41.3104	136.872	31.9198	71.1718	197.015	11.0729	60.5235	196.41	6.27689	98.8264	201.275	43.299	85.3964	
85	0.708333	160.152	59.9926	95.8592	149.568	71.9201	62.3057	154.735	73.2299	35.3096	162.954	62.8288	10.5517	194.855	90.3359	23.5033	199.604	98.3939	-1.53959	207.593	98.0876	-25.1948	194.432	63.6687	4.38242	181.757	57.8691	-20.5922	165.801	50.9408	-43.9027	185.47	33.5136	13.758	149.923	19.9639	22.3175	144.511	18.34	50.4917	189.947	11.7326	23.2443	159.67	9.88182	34.6319	158.345	22.7253	63.9212	218.695	35.2497	62.8949	214.513	25.7222	101.784	200.655	62.7694	88.6497	
86	0.716667	148.151	45.8754	95.1085	131.819	51.0907	63.8131	136.704	58.1778	35.6022	152.529	57.4559	6.76076	165.65	96.6465	26.6689	167.151	107.317	4.92897	171.522	118.621	-17.6134	181.242	77.3697	11.0793	173.491	68.5644	-19.3475	165.827	52.0942	-48.1725	188.095	39.4983	13.1644	169.235	15.6508	16.0135	164.36	4.77984	48.48	206.647	28.2996	24.4842	185.544	7.27979	29.0086	173.049	9.40406	62.1949	213.925	59.6115	68.0581	212.891	45.6107	104.241	180.411	71.3168	93.3035	
87	0.725	136.983	30.3368	96.0739	122.75	31.3754	59.4619	128.613	34.4033	32.8799	140.651	32.7294	5.79131	147.365	75.9202	24.1219	142.376	84.5379	-0.205578	151.085	96.3478	-27.5433	167.411	61.607	6.81906	167.482	47.7556	-20.0484	164.757	28.0157	-43.4968	184.135	33.5094	17.7758	175.431	-2.16833	22.0468	171.048	-10.0608	51.9505	203.202	26.3465	29.8263	190.837	0.420688	35.0342	174.057	0.69361	66.115	195.32	60.1293	73.884	199.979	55.2156	105.342	162.503	61.6427	95.1898	
88	0.733333	121.286	16.6335	97.5347	114.291	5.36468	65.5178	118.568	6.03058	36.3487	131.852	1.0754	10.7025	128.349	44.8762	12.5725	131.123	44.585	-9.5658	139.388	50.9356	-33.9267	159.094	30.6205	6.6795	159.285	11.7234	-13.676	168.784	-15.1633	-31.9032	180.709	7.7309	22.3595	172.383	-20.369	31.3076	165.856	-28.4473	61.6183	199.618	9.53265	39.7463	188.226	-16.7642	50.915	170.435	-12.3124	79.6904	177.863	50.8169	70.8473	179.912	51.2228	105.471	145.205	50.2993	89.1099	
89	0.741667	106.468	4.22713	105.468	98.724	-13.6706	75.0903	106.091	-16.1548	40.2404	123.169	-22.1475	21.5135	118.475	15.7057	19.716	116.9	10.7147	-5.51397	126.544	10.6646	-30.6805	146.221	5.7357	15.8314	153.157	-20.1498	-1.87823	157.198	-51.0922	-11.8096	168.245	-12.7603	33.0555	164.601	-43.6365	47.6868	154.613	-42.7061	78.3761	185.132	-12.9546	49.7097	176.332	-34.3349	63.7575	154.181	-26.7531	88.3478	162.222	37.7423	73.836	159.244	44.1338	110.258	128.59	37.2471	89.3978	
90	0.75	92.7715	6.5036	110.509	79.4726	-10.9544	82.0332	85.8636	-19.9419	57.1109	100.757	-29.8904	33.942	97.4195	7.67415	21.8189	100.502	0.687134	-1.19322	99.8672	-4.48678	-24.1622	121.93	-8.1605	20.714	120.167	-35.8584	6.50558	115.321	-73.7079	2.43596	141.02	-25.7579	39.8292	130.323	-56.0331	58.1056	126.2	-46.9457	91.1829	161.544	-32.6874	55.6548	143.137	-45.9659	72.3018	131.496	-30.8309	100.963	151.87	24.035	76.701	152.386	33.439	108.728	118.507	32.4215	94.9372	
91	0.758333	86.5121	28.8181	112.726	64.1298	15.982	82.6171	64.0791	2.80114	57.279	69.997	-17.7389	36.5724	86.7744	22.7223	22.6711	79.0931	17.3925	1.20489	77.1271	10.1331	-23.15	96.3727	-6.06369	21.9617	80.9407	-29.5747	10.6147	59.3655	-54.8274	8.93604	106.455	-27.5115	41.9872	86.1134	-44.8262	63.8549	88.8314	-32.9411	96.4091	121.387	-37.8124	56.2201	103.772	-44.5202	80.689	106.231	-20.4035	104.085	141.643	14.826	72.7122	151.17	22.1582	104.832	119.147	38.2301	92.406	
92	0.766667	95.343	52.3659	107.362	68.6437	50.1154	80.9616	60.8451	36.5769	55.3346	60.8588	12.0136	42.293	86.444	44.3203	19.529	77.1453	39.8402	-2.00139	71.3621	33.7458	-27.7439	79.2604	8.27509	19.7686	52.173	-3.16277	13.1405	23.5078	-13.1377	11.1771	78.2683	-13.0645	44.028	54.269	-13.0183	69.9629	68.6437	-6.07312	100.142	87.9683	-27.5191	58.9242	72.2477	-23.5419	83.2026	84.2787	-1.59789	104.14	134.311	8.35507	70.4601	150.466	10.7794	100.969	129.5	39.3892	84.7687	
93	0.775	116.541	66.9606	98.8455	93.4915	71.5933	71.9311	82.2136	57.2177	47.0305	69.5153	35.5786	35.2499	105.363	48.185	12.3789	97.8027	48.0234	-7.39861	89.7301	41.4073	-29.8833	85.7543	24.8062	17.5337	61.0299	27.3552	8.99395	23.7567	24.1174	2.75454	72.7687	7.57581	41.3808	51.7541	19.3043	65.8348	63.8859	24.1509	92.8565	78.9313	-10.2297	55.982	62.0766	2.61623	79.3044	79.9082	20.1469	98.548	131.759	2.8163	64.4506	148.564	5.58904	96.3176	140.477	38.1535	77.9516	
